<?xml version="1.0" standalone="no"?>
<!DOCTYPE svg PUBLIC "-//W3C//DTD SVG 20010904//EN"
 "http://www.w3.org/TR/2001/REC-SVG-20010904/DTD/svg10.dtd">
<svg version="1.0" xmlns="http://www.w3.org/2000/svg"
 width="505.000000pt" height="505.000000pt" viewBox="0 0 505.000000 505.000000"
 preserveAspectRatio="xMidYMid meet">
<metadata>
Created by potrace 1.14, written by Peter Selinger 2001-2017
</metadata>
<g transform="translate(0.000000,505.000000) scale(0.100000,-0.100000)"
fill="#000000" stroke="none">
<path d="M2496 4843 c-2 -3 -10 -6 -18 -7 -7 -1 -33 -9 -58 -16 -25 -8 -47
-14 -50 -14 -31 -5 -251 -131 -258 -148 -2 -4 -14 4 -27 18 -39 41 -141 63
-173 36 -12 -9 -36 -28 -54 -42 -66 -50 -76 -65 -71 -101 10 -74 10 -72 -30
-81 -27 -6 -46 -4 -66 7 -16 8 -39 12 -52 10 -13 -3 -39 -7 -58 -10 -70 -9
-150 -44 -171 -75 -8 -13 -20 -28 -25 -34 -16 -17 -95 -146 -95 -154 0 -4 -27
-21 -61 -37 -78 -37 -157 -114 -194 -190 -17 -33 -33 -62 -38 -63 -4 -2 -5 -8
-2 -13 3 -5 7 -36 9 -69 3 -59 -1 -77 -59 -225 -10 -26 -13 -50 -15 -110 -1
-42 5 -90 10 -90 1 0 3 -11 6 -24 2 -14 9 -30 14 -36 5 -7 7 -15 3 -19 -4 -3
-8 -15 -10 -26 -1 -10 -9 -37 -16 -59 -13 -35 -12 -39 2 -34 25 9 51 35 45 44
-3 5 0 9 6 9 23 0 28 -44 8 -83 -23 -46 -30 -91 -18 -121 9 -25 60 -33 102
-17 23 9 25 7 20 -17 -3 -15 -8 -31 -12 -37 -3 -5 -6 -35 -4 -65 1 -30 5 -166
8 -301 3 -135 10 -258 15 -272 6 -15 7 -27 4 -27 -4 0 -2 -5 5 -12 25 -25 14
-39 -28 -35 -38 4 -44 0 -93 -48 -37 -37 -56 -67 -67 -101 -15 -51 -20 -203
-7 -211 4 -2 7 -17 7 -32 0 -35 19 -91 31 -91 5 0 9 -6 9 -13 0 -18 24 -67 33
-67 4 0 7 -6 7 -13 0 -22 44 -75 101 -119 30 -24 63 -51 73 -60 11 -10 25 -19
30 -20 6 0 16 -2 21 -3 6 -2 15 -3 20 -4 6 -1 24 -13 41 -29 24 -20 40 -51 64
-122 34 -101 107 -263 122 -268 4 -2 6 -8 2 -13 -3 -5 -1 -9 4 -9 5 0 14 -11
20 -24 18 -40 142 -176 161 -176 5 0 11 -3 13 -8 5 -13 85 -72 97 -72 6 0 11
-4 11 -8 0 -15 210 -129 210 -114 0 4 4 2 8 -4 4 -7 34 -25 67 -41 57 -27 60
-30 62 -66 0 -20 -3 -37 -8 -37 -5 0 -9 -7 -9 -15 0 -8 -4 -15 -10 -15 -5 0
-10 -5 -10 -11 0 -16 -23 -34 -45 -37 -20 -2 -55 -9 -65 -12 -3 -1 -9 -2 -13
-1 -8 1 -119 -50 -127 -59 -6 -7 -78 -41 -94 -45 -21 -4 -51 -17 -126 -54 -81
-39 -82 -40 -128 -80 -16 -15 -44 -38 -61 -52 -17 -13 -31 -27 -31 -31 0 -4
-14 -28 -31 -53 -17 -25 -29 -48 -27 -51 3 -2 526 -3 1163 -2 1072 3 1157 4
1142 19 -9 9 -25 34 -37 56 -11 22 -35 51 -53 66 -17 14 -48 40 -67 57 -28 26
-196 120 -215 120 -13 1 -48 15 -130 55 -76 36 -187 70 -211 65 -8 -2 -42 47
-56 80 -23 58 -21 67 24 87 24 10 72 33 107 51 35 18 66 31 69 28 3 -3 11 2
18 12 7 9 16 17 21 18 17 1 63 27 63 36 0 4 6 8 13 8 7 0 23 9 35 20 12 11 26
20 32 20 6 0 13 7 16 15 4 8 11 15 18 15 15 0 166 142 166 157 0 6 4 13 9 15
20 8 157 255 147 266 -3 2 5 23 16 46 12 22 23 48 25 56 5 29 11 55 18 75 7
24 62 64 95 70 25 5 120 73 162 116 24 25 81 107 83 119 0 3 7 16 15 30 39 67
53 134 53 245 1 112 -14 154 -74 215 -41 42 -57 51 -87 52 -20 0 -40 3 -44 5
-12 6 14 64 44 96 38 40 133 180 130 190 -1 4 2 7 7 7 9 0 35 58 32 73 0 4 3
7 9 7 5 0 10 11 10 24 0 13 4 26 8 28 17 7 66 194 66 255 1 35 5 63 9 63 5 0
5 5 2 10 -4 6 -1 27 6 48 7 20 14 39 14 42 0 3 7 28 14 56 15 61 19 240 8 304
-5 25 -10 56 -12 69 -3 21 -14 53 -35 106 -11 27 -22 58 -26 70 -18 62 -54
134 -79 159 -17 17 -37 50 -44 74 -8 23 -17 42 -22 42 -4 0 -10 11 -13 24 -3
14 -26 46 -51 73 -97 102 -129 133 -137 133 -4 0 -8 5 -8 11 0 6 -34 44 -75
85 -59 59 -92 82 -162 115 -81 38 -124 54 -163 64 -8 2 -46 11 -85 20 -87 20
-85 20 -172 35 -39 6 -80 13 -90 15 -10 2 -23 4 -30 4 -7 1 -22 12 -35 26 -13
13 -37 39 -54 57 -17 18 -43 42 -59 53 -15 11 -33 26 -40 33 -8 6 -20 12 -29
12 -8 0 -22 7 -30 16 -9 8 -16 13 -16 9 0 -3 -10 0 -22 6 -13 7 -34 14 -48 16
-39 6 -209 11 -214 6z m364 -135 c0 -5 5 -8 12 -8 13 0 68 -49 68 -62 0 -4 -6
-5 -12 -3 -7 2 -26 7 -42 9 -29 5 -48 25 -53 56 -1 8 -7 16 -13 18 -5 2 -8 8
-5 13 6 9 45 -11 45 -23z m-420 5 c-8 -3 -23 -14 -34 -25 -11 -10 -24 -18 -29
-18 -5 0 -17 -8 -26 -19 -9 -10 -27 -21 -41 -25 -24 -7 -24 -6 -6 8 11 9 23
16 28 16 4 0 8 8 8 17 0 9 3 13 7 10 3 -4 13 -1 21 5 23 20 56 36 72 36 13 0
13 0 0 -5z m-1332 -763 c-7 -11 -16 -20 -21 -20 -4 0 -5 -5 -2 -10 7 -11 -22
-26 -31 -17 -6 5 51 67 61 67 3 0 0 -9 -7 -20z"/>
</g>
</svg>
